<?xml version="1.0" encoding="UTF-8"?>
<svg id="_Слой_2" data-name="Слой 2" xmlns="http://www.w3.org/2000/svg" viewBox="0 0 800.47 800.35">
  <defs>
    <style>
      .cls-1, .cls-2 {
        fill: none;
      }

      .cls-2 {
        stroke: #945aa1;
        stroke-miterlimit: 10;
        stroke-width: 20px;
      }

      .cls-3 {
        fill: #945aa1;
      }
    </style>
  </defs>
  <g id="_Слой_1-2" data-name="Слой 1">
    <path class="cls-3" d="M504.33,509.25c-4.48-3.83-18.18-.37-25.59,2.69-24.25,9.38-45.16,27.72-57.94,49.19-8.61,13.4-20.91,50.39,7.7,40.55,28.25-8.29,59.38-31.18,74.39-69.66,2.62-6.8,7.47-17.53,1.54-22.69l-.1-.07Z"/>
    <path class="cls-3" d="M286.8,542.77c4.16-4.01,15.34-5.5,23.92-4.78,21.12,1.4,41.12,10.62,55.05,25.24,18.9,20.19,18.75,41.96-14.62,37.61-21.62-1.48-44.74-13.71-59.67-34.72-4.72-6.58-11.71-16.41-4.79-23.25l.11-.1Z"/>
    <path class="cls-3" d="M430.6,400.27c.19,15.92-14.88,28.36-30.47,25.38-24.12-4.18-29.1-37.05-7.53-48.4,17.14-9.02,38.25,3.52,38,23.03Z"/>
    <path class="cls-3" d="M388.85,578.1c-1.69,31.87-6.15,64.56-14.52,94.7-.66,2.97-.05,4.95,3.32,4,33.89-14.82,23.96-104.71,28.49-137.13.96-10.84,2.47-21.69,4.53-32.25,1.5-7.62,2.28-10.3,1.27-11.36-.7-.7-1.8-.59-2.72-.4-17.11,5.04-18.7,65.14-20.37,82.43Z"/>
    <path class="cls-2" d="M447.71,400.27c-.76,47.81-65.83,59.39-83.26,15.12-8.44-22.09,3.21-48.17,25.8-55.76,27.91-9.91,57.74,10.84,57.47,40.64Z"/>
    <path class="cls-3" d="M384.1,362.51c-1.64,11.29-13.36,21.25-23.55,24.41-6.9,2.17-13.73.74-20.14-2.2-25.5-11.27-58.77-43.15-35.76-69.43,23.75-26.68,52.86-6.96,68.75,17.71,5.69,8.74,12.17,20.19,10.72,29.34l-.02.17Z"/>
    <path class="cls-3" d="M410.9,353.36c-8.91,6.11-23.17,4.79-32.22.1-6.33-3.23-10.12-8.88-12.35-15.43-8.75-24.98-7.61-67.34,25.71-68.88,34.31-1.18,40.28,30.47,32.84,58.14-2.49,9.53-6.5,21.09-13.84,25.97l-.14.1Z"/>
    <path class="cls-3" d="M434.76,377.37c-11.17-1.94-20.87-13.65-23.94-23.83-2.13-6.92-.68-13.71,2.37-20.07,11.61-24.94,43.29-56.2,68.93-33.13,26.22,23.95,7.15,52.24-18.09,67.47-8.73,5.35-20.09,11.27-29.11,9.59l-.17-.03Z"/>
    <path class="cls-3" d="M451.23,408.68c-6.39-7.95-6.68-21.18-3.4-30.36,2.66-7.89,9.26-12.66,16.74-15.49,22.31-9.14,56.65-9.24,61.8,19.12,5.46,32.78-21.55,43.47-49.83,38.19-9.14-1.62-20.02-4.67-25.19-11.33l-.11-.13Z"/>
    <path class="cls-3" d="M427.68,430.11c.93-9.96,9.4-18.65,18.67-21.92,9.54-3.53,19.78.72,29.5,6.19,18.06,10.3,35.67,27.77,27.11,47.06-3.92,9-12.95,16.14-22.62,17.44-16.89,2.01-31.51-10.97-41.79-23.71-5.98-7.61-11.72-16.81-10.88-24.88v-.18Z"/>
    <path class="cls-3" d="M395.52,437.69c8.64-5.67,22.03-4.85,31.11-.96,7.67,3.13,12.08,9.86,14.34,17.51,7.17,22.1,4.34,53.98-22.95,58.06-33.41,4.23-44.78-21.91-36.27-51.05,2.47-8.81,6.58-18.98,13.64-23.46l.14-.1Z"/>
    <path class="cls-3" d="M363.53,389.24c6.61,8.85,5.41,23.61.54,32.73-3.3,6.29-9.1,9.96-15.63,12.28-25.48,9.39-70.63,10.03-72.86-23.92-.77-8.56,1.83-18.11,7.35-24.44,12.81-14.2,34.73-13.41,52.77-9.85,9.99,2.2,22.42,5.76,27.73,13.08l.1.13Z"/>
    <path class="cls-3" d="M368.98,417.84c11.2,2.18,20.61,14.34,23.28,24.66,1.84,6.98.08,13.72-3.17,19.97-12.5,24.87-46.01,56.46-71.16,32.25-25.55-24.98-4.4-53.03,21.02-67.65,9.02-5.25,20.78-11.14,29.86-9.26l.17.03Z"/>
  </g>
  <g id="_Слой_2-2" data-name="Слой 2">
    <g>
      <path class="cls-3" d="M179.44,209.4c-2.34,1.47-3.5,5.64-3.99,9.2-.55,3.5-1.18,7.54-2.58,10.94-2.8,7.8-10.82,12.12-15.38,3.54-1.91-3.83-1.81-9.03-1.87-13.53.02-16.74-.07-41.63.03-58.41.06-3.09.26-6.44,1.16-9.08,2.74-8.91,10.98-5.34,17.81-5.3,7.26.32,15.36-1.51,23.11-.95,19.14,1.56,24.8,24.73,20.28,40.63-2.69,10.77-10.71,19.88-21.89,21.14-6.91.97-12.3-.95-16.59,1.75l-.09.06ZM174.87,175.58c-.98,8.78,4.19,20.5,14.09,19.27,10.87-2.38,13.59-17.26,10.22-26.36-6.65-16.88-23.18-8.32-24.29,6.87l-.02.22Z"/>
      <path class="cls-3" d="M241.93,136.39c-6.18.05-12.09-5.65-10.51-11.94,2.49-10.08,18.38-10.35,21.26-.18,1.84,6.36-4.24,12.32-10.54,12.12h-.21ZM246.77,206.6c-5.49,3.87-11.88.9-13.58-6.95-.88-4.39-.69-8.81-.74-13.39,0-4.7,0-9.7,0-14.45.4-9.91-1.63-19.77,5.67-24.57,5.07-2.78,10.55.42,12.16,6.16,1.34,4.02,1.08,11.82,1.11,18.14-.01,6.69.03,13.91-.02,19.76.09,5.02-.64,12.59-4.5,15.22l-.09.07Z"/>
      <path class="cls-3" d="M290.45,209.4c-2.34,1.47-3.5,5.64-3.99,9.2-.55,3.5-1.18,7.54-2.58,10.94-2.8,7.8-10.82,12.12-15.38,3.54-1.91-3.83-1.81-9.03-1.87-13.53.02-16.74-.07-41.63.03-58.41.06-3.09.26-6.44,1.16-9.08,2.74-8.91,10.98-5.34,17.81-5.3,7.26.32,15.36-1.51,23.11-.95,19.14,1.56,24.8,24.73,20.28,40.63-2.69,10.77-10.71,19.88-21.89,21.14-6.91.97-12.3-.95-16.59,1.75l-.09.06ZM285.87,175.58c-.98,8.78,4.19,20.5,14.09,19.27,10.87-2.38,13.59-17.26,10.22-26.36-6.65-16.88-23.18-8.32-24.29,6.87l-.02.22Z"/>
      <path class="cls-3" d="M352.93,136.39c-6.18.05-12.09-5.65-10.51-11.94,2.49-10.08,18.38-10.35,21.26-.18,1.84,6.36-4.24,12.32-10.54,12.12h-.21ZM357.78,206.6c-5.49,3.87-11.88.9-13.58-6.95-.88-4.39-.69-8.81-.74-13.39,0-4.7,0-9.7,0-14.45.4-9.91-1.63-19.77,5.67-24.57,5.07-2.78,10.55.42,12.16,6.16,1.34,4.02,1.08,11.82,1.11,18.14-.01,6.69.03,13.91-.02,19.76.09,5.02-.64,12.59-4.5,15.22l-.09.07Z"/>
      <path class="cls-3" d="M436.93,148.37c2.74,6.9-7.13,15.43-8.77,22.41-1.29,3.9-1.24,8.09.08,11.97,2,6.35,7.52,12.56,8.91,17.61,1.75,5.56-1.54,8.96-7.23,7.69-5.15-.85-11.9-4.96-16.71-7.94-3-1.83-6.18-3.94-9.75-3.68-5.88.74-10.44,5.37-16.01,7.96-4.54,2.37-11.83,5.89-15.53,2.42-4.53-6.3,6.62-16.3,8.41-22.86,6.26-15.65-10.7-24.68-7.67-34.98,1.67-3.35,5.04-3.18,9.41-1.98,6.9,2,13.75,7.86,19.87,11.17,4.66,2.43,9.07-.63,12.87-3.3,4.66-3.03,17.85-12.52,22.07-6.58l.05.08Z"/>
      <path class="cls-3" d="M454.48,209.78c-8.76-.04-14.58-10.18-7.83-16.73,5.56-5.8,17.01-3.4,18.98,4.37,1.87,6.58-4.43,12.63-10.94,12.37h-.21Z"/>
      <path class="cls-3" d="M493.51,207.02c-4.54,2.64-10.49,1.06-12.73-4.11-1.43-3.31-1.32-7.68-1.37-11.48.04-17.39-.1-44.55.05-61.8.09-3.34.46-6.99,2.19-9.46,2.89-4.23,8.8-4.97,12.72-1.86,3.05,2.02,4.02,7.86,3.93,12.09.09,15.15.01,40.27.04,56.09-.35,9.15,1.36,16.15-4.74,20.48l-.09.05Z"/>
      <path class="cls-3" d="M561.86,205.96c-4.41,4.22-10.81,1.95-16.27,2.42-11.29.34-26,3.88-32.35-8.79-4.12-7.97-1.12-17.84,6.09-23.12,5.41-4.53,16.75-7.25,20.34-12.37,1.98-4.66-7.42-4.68-10.9-5.57-2.39-.44-4.68-.89-6.42-1.5-4.75-1.43-4.82-5.19.63-8.92,9.39-6.41,24.08-5.06,32.67,1.61,8.07,6.25,10.18,15.94,10.92,26.04.53,9.66,1.75,22.77-4.61,30.1l-.09.09ZM547.8,183.61c-3.79-10.73-21.87-2.36-20.06,6.84,3.38,11.21,22.09,3.19,20.1-6.68l-.04-.15Z"/>
      <path class="cls-3" d="M601.27,208.64c-2.43-.07-4.84-.06-7.24-.01-4.87.02-8.81.43-11.48-2.98-2.97-3.97-2.78-9.15-2.9-14.09.05-17.65-.15-45.04.08-62.55.05-5.32,1.68-12.11,7.22-13.31,1.81-.36,3.75.12,5.52,1.52,5.22,4.05,6.41,13.14,6.91,19.69.79,8.37,2.66,12.35,11.08,10.84,8.24-1.54,17.71-1.58,24.23,4.83,12.93,12.3,11.38,40.1-2.75,51.03-8.62,6.91-20.53,5.26-30.68,5.03ZM598.97,174.73c-1.23,8.8,3.47,20.94,13.47,20.31,10.2-1.58,13.83-14.95,11.38-24.37-5.04-18.06-23.07-12.73-24.85,4.07Z"/>
    </g>
    <path class="cls-1" d="M799.96,799.89c-227.86.89-567.76.17-797.95.36-2.08.1-1.82-1.27-1.86-2.84C.57,577.95-.66,219.06.54.46,219.08-.36,578.16.19,797.49.07c1.61.06,2.91-.25,2.84,1.86-.16,230.07.62,570.2-.36,797.95h0Z"/>
  </g>
</svg>